<?xml version="1.0" encoding="UTF-8" standalone="no"?>
<svg width="300px" height="59px" viewBox="0 0 300 59" version="1.1" xmlns="http://www.w3.org/2000/svg" xmlns:xlink="http://www.w3.org/1999/xlink" xmlns:sketch="http://www.bohemiancoding.com/sketch/ns">
    <!-- Generator: Sketch 3.3 (11970) - http://www.bohemiancoding.com/sketch -->
    <title>blanc</title>
    <desc>Created with Sketch.</desc>
    <defs></defs>
    <g id="Page-1" stroke="none" stroke-width="1" fill="none" fill-rule="evenodd" sketch:type="MSPage">
        <g id="Desktop-HD" sketch:type="MSArtboardGroup" transform="translate(-415.000000, -512.000000)" fill="#FFFFFF">
            <g id="blanc" sketch:type="MSLayerGroup" transform="translate(415.000000, 512.000000)">
                <g id="Group" sketch:type="MSShapeGroup">
                    <path d="M36.3126923,22.2323077 C33.2082692,22.2323077 30.5746154,22.9707692 28.4117308,24.4459615 C26.2482692,25.9228846 24.7857692,27.8809615 24.0225,30.3236538 C23.1063462,27.9323077 21.6553846,25.9851923 19.6713462,24.4834615 C17.6861538,22.9834615 15.6121154,22.2317308 13.4492308,22.2317308 C11.2857692,22.2317308 9.19961538,22.7925 7.19019231,23.9105769 C5.17903846,25.0309615 3.66519231,26.3538462 2.64807692,27.8809615 L2.64807692,23.0711538 L0.205384615,23.0711538 L0.205384615,57.4223077 L2.64807692,57.4223077 L2.64807692,34.5225 C2.64807692,31.8259615 3.66519231,29.46 5.70115385,27.4234615 C7.73596154,25.3886538 10.1290385,24.3703846 12.8769231,24.3703846 C15.6248077,24.3703846 17.9648077,25.3765385 19.8998077,27.3859615 C21.8336538,29.3971154 22.8011538,31.7751923 22.8011538,34.5230769 L22.8011538,57.4240385 L25.2438462,57.4240385 L25.2438462,34.5225 C25.2438462,31.8259615 26.2996154,29.46 28.4117308,27.4234615 C30.5226923,25.3886538 32.9405769,24.3703846 35.6642308,24.3703846 C38.3855769,24.3703846 40.7134615,25.3511538 42.6490385,27.3092308 C44.5817308,29.2690385 45.5492308,31.725 45.5492308,34.6759615 L45.5492308,57.4234615 L47.9919231,57.4234615 L47.9919231,34.6753846 C47.9919231,30.8584615 46.8213462,27.8313462 44.4807692,25.5911538 C42.1390385,23.3532692 39.4165385,22.2323077 36.3126923,22.2323077" id="Shape"></path>
                    <path d="M247.605577,50.6290385 C244.907308,47.5759615 243.559615,44.0151923 243.559615,39.9426923 C243.559615,35.8725 245.124231,32.2707692 248.254038,29.1415385 C251.383846,26.0105769 254.972308,24.4465385 259.018269,24.4465385 C263.064231,24.4465385 266.664231,25.8207692 269.819423,28.5686538 L247.605577,50.6290385 L247.605577,50.6290385 Z M259.666731,22.3090385 C254.424808,22.3090385 250.022308,24.0778846 246.460962,27.6138462 C242.897885,31.1526923 241.1175,35.3371154 241.1175,40.1711538 C241.1175,45.0069231 242.911731,49.2438462 246.499038,52.8813462 C250.086346,56.52 254.297308,58.3396154 259.133077,58.3396154 L259.819615,58.3396154 C264.96,58.3396154 269.335962,56.3544231 272.949808,52.3851923 L272.949808,48.4915385 C271.371923,50.8332692 269.374038,52.7036538 266.957308,54.1026923 C264.54,55.5034615 261.804231,56.2021154 258.751154,56.2021154 C255.698077,56.2021154 252.516923,54.8792308 249.209423,52.2317308 L273.178269,28.5680769 C269.411538,24.3963462 264.9075,22.3090385 259.666731,22.3090385 L259.666731,22.3090385 Z" id="Shape"></path>
                    <path d="M297.719423,42.0034615 C296.574808,40.4273077 295.187885,39.1292308 293.559231,38.1109615 C291.93,37.0932692 290.315192,36.1396154 288.711923,35.2476923 C287.108654,34.3586538 285.735,33.3778846 284.589808,32.3088462 C283.445192,31.2403846 282.872308,30.0703846 282.872308,28.7976923 C282.872308,27.5261538 283.381154,26.4576923 284.398846,25.5911538 C285.417692,24.7263462 286.587692,24.2930769 287.910577,24.2930769 C290.403462,24.2930769 292.464231,25.5144231 294.093462,27.9571154 L294.093462,24.8278846 C292.464231,23.0469231 290.506154,22.1555769 288.215769,22.1555769 C285.925962,22.1555769 284.055577,22.7798077 282.605192,24.0253846 C281.154808,25.2738462 280.429038,26.8003846 280.429038,28.6061538 C280.429038,30.4130769 281.001923,31.9909615 282.146538,33.3392308 C283.292308,34.6875 284.665962,35.8332692 286.268654,36.7736538 C287.871923,37.7163462 289.486731,38.6705769 291.115962,39.6369231 C292.744615,40.6044231 294.130385,41.7744231 295.276154,43.1480769 C296.420769,44.5223077 296.993654,46.215 296.993654,48.225 C296.993654,50.2361538 296.089615,52.0546154 294.283269,53.6821154 C292.476346,55.3125 290.25,56.1248077 287.603654,56.1248077 C283.329231,56.1248077 280.224231,53.9873077 278.290385,49.7128846 L278.290385,53.3769231 C279.104423,54.8538462 280.389808,56.0376923 282.145385,56.9267308 C283.901538,57.8169231 285.796731,58.2623077 287.832115,58.2623077 C291.038654,58.2623077 293.773846,57.2076923 296.038846,55.0944231 C298.302115,52.9840385 299.435192,50.4271154 299.435192,47.4225 C299.436923,45.3888462 298.864038,43.5813462 297.719423,42.0034615" id="Shape"></path>
                    <path d="M221.805,22.2323077 C218.700577,22.2323077 216.066923,22.9707692 213.904038,24.4459615 C211.74,25.9228846 210.278077,27.8809615 209.514808,30.3236538 C208.598654,27.9323077 207.147692,25.9851923 205.163654,24.4834615 C203.178462,22.9834615 201.104423,22.2317308 198.941538,22.2317308 C196.778077,22.2317308 194.691923,22.7925 192.681923,23.9105769 C190.670769,25.0309615 189.1575,26.3538462 188.140385,27.8809615 L188.140385,23.0711538 L185.697692,23.0711538 L185.697692,57.4223077 L188.140385,57.4223077 L188.140385,34.5225 C188.140385,31.8259615 189.1575,29.46 191.193462,27.4234615 C193.228269,25.3886538 195.621346,24.3703846 198.369231,24.3703846 C201.117115,24.3703846 203.457115,25.3765385 205.392115,27.3859615 C207.325962,29.3971154 208.293462,31.7751923 208.293462,34.5230769 L208.293462,57.4240385 L210.736154,57.4240385 L210.736154,34.5225 C210.736154,31.8259615 211.791923,29.46 213.904038,27.4234615 C216.015,25.3886538 218.432885,24.3703846 221.156538,24.3703846 C223.877885,24.3703846 226.205769,25.3511538 228.141346,27.3092308 C230.074038,29.2690385 231.041538,31.725 231.041538,34.6759615 L231.041538,57.4234615 L233.484231,57.4234615 L233.484231,34.6753846 C233.484231,30.8584615 232.313654,27.8313462 229.973077,25.5911538 C227.631346,23.3532692 224.908846,22.2323077 221.805,22.2323077" id="Shape"></path>
                    <path d="M169.667885,51.4309615 C166.614808,54.5607692 162.938077,56.1253846 158.637115,56.1253846 C154.336154,56.1253846 150.621923,54.5607692 147.492115,51.4309615 C144.362308,48.3011538 142.797692,44.5984615 142.797692,40.3240385 C142.797692,36.0496154 144.362308,32.3221154 147.492115,29.1409615 C150.621923,25.9603846 154.324615,24.3698077 158.599038,24.3698077 C162.873462,24.3698077 166.550192,25.9476923 169.629808,29.1023077 C172.708269,32.2592308 174.248654,35.9861538 174.248654,40.2859615 C174.248654,44.5869231 172.721538,48.3011538 169.667885,51.4309615 L169.667885,51.4309615 Z M174.095769,31.6978846 C172.924615,28.8478846 170.851731,26.5586538 167.874808,24.8273077 C164.897308,23.0976923 161.780192,22.2323077 158.522885,22.2323077 C153.534808,22.2323077 149.260385,24.0011538 145.699038,27.5371154 C142.135962,31.0748077 140.355577,35.3117308 140.355577,40.2473077 C140.355577,45.1840385 142.136538,49.4209615 145.699038,52.9569231 C149.260385,56.4946154 153.534808,58.2617308 158.522885,58.2617308 C161.779615,58.2617308 164.833269,57.4223077 167.683846,55.7434615 C170.532692,54.0634615 172.670769,51.7730769 174.095769,48.8728846 L174.095769,57.4223077 L176.538462,57.4223077 L176.538462,23.0723077 L174.095769,23.0723077 L174.095769,31.6978846 L174.095769,31.6978846 Z" id="Shape"></path>
                    <path d="M126.12,51.4309615 C122.990192,54.5607692 119.274808,56.1253846 114.975,56.1253846 C110.673462,56.1253846 106.997885,54.5607692 103.944231,51.4309615 C100.891154,48.3011538 99.3640385,44.5875 99.3640385,40.2859615 C99.3640385,35.9861538 100.902692,32.2592308 103.982885,29.1028846 C107.061346,25.9476923 110.738077,24.3698077 115.013654,24.3698077 C119.288077,24.3698077 122.990192,25.9609615 126.12,29.1409615 C129.249808,32.3221154 130.814423,36.0490385 130.814423,40.3246154 C130.814423,44.5990385 129.249808,48.3011538 126.12,51.4309615 L126.12,51.4309615 Z M130.662115,0.171346154 L130.662115,31.4688462 C129.287885,28.6713462 127.137692,26.4305769 124.211538,24.7517308 C121.284231,23.0717308 118.244423,22.2323077 115.089231,22.2323077 C110.051538,22.2323077 105.763846,24.0011538 102.226731,27.5371154 C98.6890385,31.0748077 96.9219231,35.3117308 96.9219231,40.2473077 C96.9219231,45.1840385 98.6890385,49.4209615 102.226731,52.9569231 C105.763846,56.4946154 110.051538,58.2617308 115.089231,58.2617308 C118.142308,58.2617308 121.120385,57.4338462 124.021154,55.7809615 C126.921346,54.1280769 129.135,51.9005769 130.662115,49.1013462 L130.662115,57.4217308 L133.104808,57.4217308 L133.104808,0.171346154 L130.662115,0.171346154 L130.662115,0.171346154 Z" id="Shape"></path>
                    <path d="M85.6315385,40.2282692 C85.6315385,43.5767308 84.4430769,46.4676923 82.0667308,48.9034615 C79.6898077,51.3392308 76.8282692,52.5571154 73.4815385,52.5571154 C70.1336538,52.5571154 67.2426923,51.3392308 64.8069231,48.9034615 C62.3711538,46.4676923 61.1532692,43.5848077 61.1532692,40.2576923 C61.1532692,36.9311538 62.3711538,34.0298077 64.8069231,31.5536538 C67.2426923,29.0780769 70.1244231,27.84 73.4521154,27.84 C76.7786538,27.84 79.6396154,29.0682692 82.0367308,31.5230769 C84.4332692,33.9801923 85.6315385,36.8815385 85.6315385,40.2282692 M86.3948077,27.4171154 C82.8230769,23.8465385 78.5082692,22.0615385 73.4498077,22.0615385 C68.3884615,22.0615385 64.0603846,23.8465385 60.465,27.4171154 C56.8690385,30.9888462 55.0719231,35.2136538 55.0719231,40.0938462 C55.0719231,44.9757692 56.8442308,49.2519231 60.3888462,52.9246154 C63.9334615,56.5984615 68.1709615,58.4348077 73.1036538,58.4348077 L73.7965385,58.4348077 C78.7788462,58.4348077 83.0163462,56.6111538 86.5113462,52.9632692 C90.0034615,49.3159615 91.7509615,45.0392308 91.7509615,40.1325 C91.7503846,35.2269231 89.9642308,30.9882692 86.3948077,27.4171154" id="Shape"></path>
                </g>
            </g>
        </g>
    </g>
</svg>