<?xml version="1.0" encoding="UTF-8"?>
<svg width="115px" height="115px" viewBox="0 0 115 115" version="1.1" xmlns="http://www.w3.org/2000/svg" xmlns:xlink="http://www.w3.org/1999/xlink" xmlns:sketch="http://www.bohemiancoding.com/sketch/ns">
    <!-- Generator: Sketch 3.3 (11970) - http://www.bohemiancoding.com/sketch -->
    <title>acc</title>
    <desc>Created with Sketch.</desc>
    <defs></defs>
    <g id="Page-1" stroke="none" stroke-width="1" fill="none" fill-rule="evenodd" sketch:type="MSPage">
        <g id="Desktop" sketch:type="MSArtboardGroup" transform="translate(-65.000000, -69.000000)">
            <g id="acc" sketch:type="MSLayerGroup" transform="translate(65.000000, 69.000000)">
                <rect id="Rectangle-1" fill="#40B8C7" sketch:type="MSShapeGroup" x="0" y="0" width="115" height="115" rx="10"></rect>
                <g id="clutch" transform="translate(16.000000, 33.000000)" fill="#FFFFFF" sketch:type="MSShapeGroup">
                    <path d="M1.73003125,0.108453333 C0.775044922,0.108453333 0,0.88935 0,1.85154667 L0,47.1484533 C0,48.11065 0.775044922,48.8915467 1.73003125,48.8915467 L81.2699688,48.8915467 C82.2249551,48.8915467 83,48.11065 83,47.1484533 L83,1.85154667 C83,0.88935 82.2249551,0.108453333 81.2699687,0.108453333 L1.73003125,0.108453333 Z M77.8353574,3.59464 C77.744252,4.43678667 77.0324297,9.53850333 72.8302305,14.68089 C70.1148984,18.0061933 66.4979141,20.66036 62.0778398,22.57185 C59.4993281,23.68709 56.6421504,24.5496533 53.5265703,25.1597033 L53.5265703,24.5013067 C53.5265703,23.53666 52.753957,22.7582133 51.7965391,22.7582133 L31.0465391,22.7582133 C30.0941465,22.7582133 29.3191016,23.53666 29.3191016,24.5013067 L29.3191016,25.1647667 C26.2592871,24.56762 23.4476621,23.7305367 20.9046523,22.6484533 C16.4921973,20.77012 12.8701875,18.1594 10.1420488,14.89012 C5.62584375,9.47709 5.03300977,3.96459 5.00010156,3.59464 L77.8353574,3.59464 L77.8353574,3.59464 Z M50.0689395,26.2417867 L50.0689395,29.7279733 L46.6875,29.7279733 L46.6875,26.2417867 L50.0689395,26.2417867 L50.0689395,26.2417867 Z M43.2300313,26.2417867 L43.2300313,29.7279733 L39.7699688,29.7279733 L39.7699688,26.2417867 L43.2300313,26.2417867 L43.2300313,26.2417867 Z M36.3125,26.2417867 L36.3125,29.7279733 L32.7765703,29.7279733 L32.7765703,26.2417867 L36.3125,26.2417867 L36.3125,26.2417867 Z M79.5425312,45.40781 L3.45746875,45.40781 L3.45746875,10.65113 C4.31616211,12.5907133 5.55727148,14.7726833 7.34809375,16.9522033 C10.4181211,20.6935167 14.4732871,23.6692867 19.4049785,25.79262 C22.3913574,27.07887 25.7043867,28.0511933 29.3189395,28.70714 L29.3189395,31.4684533 C29.3189395,32.43065 30.0939844,33.2115467 31.046377,33.2115467 L51.796377,33.2115467 C52.7537949,33.2115467 53.5264082,32.43065 53.5264082,31.4684533 L53.5264082,28.7019133 C57.1409609,28.0435167 60.456584,27.0659667 63.4429629,25.7746533 C68.3746543,23.6411933 72.4324141,20.6526833 75.4998477,16.8960167 C77.3996074,14.57113 78.6786504,12.2486933 79.5425312,10.21209 L79.5425312,45.40781 L79.5425312,45.40781 Z" id="Shape"></path>
                </g>
            </g>
        </g>
    </g>
</svg>