<?xml version="1.0" encoding="UTF-8"?>
<svg width="115px" height="115px" viewBox="0 0 115 115" version="1.1" xmlns="http://www.w3.org/2000/svg" xmlns:xlink="http://www.w3.org/1999/xlink" xmlns:sketch="http://www.bohemiancoding.com/sketch/ns">
    <!-- Generator: Sketch 3.3 (11970) - http://www.bohemiancoding.com/sketch -->
    <title>coat</title>
    <desc>Created with Sketch.</desc>
    <defs></defs>
    <g id="Page-1" stroke="none" stroke-width="1" fill="none" fill-rule="evenodd" sketch:type="MSPage">
        <g id="Desktop" sketch:type="MSArtboardGroup" transform="translate(-63.000000, -216.000000)">
            <g id="coat" sketch:type="MSLayerGroup" transform="translate(63.000000, 216.000000)">
                <rect id="Rectangle-1-Copy-4" fill="#40B8C7" sketch:type="MSShapeGroup" x="0" y="0" width="115" height="115" rx="10"></rect>
                <g id="suit" transform="translate(26.000000, 19.000000)" fill="#FFFFFF" sketch:type="MSShapeGroup">
                    <path d="M47.2773357,0.64962313 L40.0735219,0.64962313 L23.0451065,0.64962313 L15.8343653,0.64962313 C7.15205627,0.64962313 0.111700935,7.67810613 0.111700935,16.3484032 L0.111700935,60.3035746 L9.54482788,60.3035746 L9.54482788,76 L53.5668731,76 L53.5668731,60.3035746 L63,60.3035746 L63,16.3484032 C63,7.67810613 55.9596447,0.64962313 47.2773357,0.64962313 L47.2773357,0.64962313 Z M40.9992949,6.00170742 L39.6727614,10.7283247 L43.617872,13.683178 L34.5094509,27.7366119 L38.8551746,3.87114608 L40.9992949,6.00170742 L40.9992949,6.00170742 Z M24.2563789,3.88056488 L28.5976808,27.718363 L19.5215388,13.6843553 L23.4666493,10.7283247 L22.1399685,5.99949989 L24.2563789,3.88056488 L24.2563789,3.88056488 Z M29.9842031,72.8611859 L12.6907757,72.8611859 L12.6907757,22.6272088 L9.54482788,22.6272088 L9.54482788,57.1624058 L3.25764877,57.1624058 L3.25764877,55.5941761 C4.12358035,55.5941761 4.82826441,54.8905625 4.82826441,54.0235916 C4.82826441,53.1566208 4.12358035,52.4530072 3.25764877,52.4530072 L3.25764877,16.3484032 C3.25764877,12.9933982 4.56575817,9.8395729 6.9401057,7.46765489 C9.31681151,5.09573687 12.474256,3.78961462 15.8343653,3.78961462 L19.9060861,3.78961462 L18.6140425,5.07969548 L19.8577413,9.50741314 L15.2909287,12.9290855 L29.9842031,35.6482543 L29.9842031,72.8611859 L29.9842031,72.8611859 Z M27.436964,3.78961462 L35.6747369,3.78961462 L31.5568822,26.4098861 L27.436964,3.78961462 L27.436964,3.78961462 Z M59.8565578,52.4530072 C58.9860571,52.4530072 58.2835839,53.1566208 58.2835839,54.0235916 C58.2835839,54.8905625 58.9860571,55.5941761 59.8565578,55.5941761 L59.8565578,57.1624058 L59.8564104,57.1624058 L53.5668731,57.1624058 L53.5668731,22.6272088 L50.4232835,22.6272088 L50.4232835,72.8611859 L33.1276452,72.8611859 L33.1276452,65.0129732 C33.9959351,65.0129732 34.7006192,64.3093596 34.7006192,63.4423888 C34.7006192,62.5754179 33.9959351,61.8718043 33.1276452,61.8718043 L33.1276452,55.5941761 C33.9959351,55.5941761 34.7006192,54.8905625 34.7006192,54.0235916 C34.7006192,53.1566208 33.9959351,52.4530072 33.1276452,52.4530072 L33.1276452,46.175379 C33.9959351,46.175379 34.7006192,45.4717654 34.7006192,44.6047945 C34.7006192,43.7378237 33.9959351,43.0342101 33.1276452,43.0342101 L33.1276452,35.6492845 L47.8508403,12.9301157 L43.2816694,9.50726597 L44.5253683,5.07616343 L43.2311138,3.78961462 L47.2774831,3.78961462 C50.6375924,3.78961462 53.7950368,5.09573687 56.1717426,7.46765489 C58.5460902,9.8395729 59.8565578,12.9933982 59.8565578,16.3484032 L59.8565578,52.4530072 L59.8565578,52.4530072 Z" id="Shape"></path>
                </g>
            </g>
        </g>
    </g>
</svg>