<?xml version="1.0" encoding="UTF-8"?>
<svg width="115px" height="115px" viewBox="0 0 115 115" version="1.1" xmlns="http://www.w3.org/2000/svg" xmlns:xlink="http://www.w3.org/1999/xlink" xmlns:sketch="http://www.bohemiancoding.com/sketch/ns">
    <!-- Generator: Sketch 3.3 (11970) - http://www.bohemiancoding.com/sketch -->
    <title>dress</title>
    <desc>Created with Sketch.</desc>
    <defs></defs>
    <g id="Page-1" stroke="none" stroke-width="1" fill="none" fill-rule="evenodd" sketch:type="MSPage">
        <g id="Desktop" sketch:type="MSArtboardGroup" transform="translate(-229.000000, -69.000000)">
            <g id="dress" sketch:type="MSLayerGroup" transform="translate(229.000000, 69.000000)">
                <rect id="Rectangle-1-Copy" fill="#40B8C7" sketch:type="MSShapeGroup" x="0" y="0" width="115" height="115" rx="10"></rect>
                <g transform="translate(31.000000, 18.000000)" id="Shape" fill="#FFFFFF" sketch:type="MSShapeGroup">
                    <path d="M52.9491696,6.31660547 L36.5125058,0 C36.5125058,0 32.4614152,7.96202734 26.5,7.96202734 C20.5385848,7.96202734 16.4874942,0 16.4874942,0 L0.0508304094,6.31660547 L3.35852632,19.4824492 L9.96895906,17.8370273 C9.96895906,17.8370273 11.6009561,23.237418 11.6009561,26.1690586 C11.6009561,26.1690586 6.66374269,43.8926777 6.66374269,47.6464121 C6.66374269,51.4001465 8.31759064,79 8.31759064,79 L29.8052164,79 L44.6824094,79 C44.6824094,79 46.3362573,51.4001465 46.3362573,47.6464121 C46.3362573,43.8926777 41.3819971,26.0786406 41.3819971,26.0786406 C41.3819971,22.8612422 43.0310409,17.8370273 43.0310409,17.8370273 L49.6414737,19.4824492 L52.9491696,6.31660547 Z M38.1954883,26.9573613 C38.207576,27.0019531 39.4400585,31.4392227 40.6556491,36.2670176 C42.8591784,45.025834 43.0310409,47.1907734 43.0310409,47.6464121 C43.0310409,50.2501719 42.1568509,65.7401895 41.5684269,75.7066875 L29.8052164,75.7066875 L11.4315731,75.7066875 C10.8431491,65.7400352 9.96895906,50.2501719 9.96895906,47.6464121 C9.96895906,47.1907734 10.1408216,45.0306172 12.3347427,36.3128437 C13.5453743,31.5068047 14.7755322,27.0923711 14.7851404,27.0490137 L14.9061725,26.6174453 L14.9061725,26.1690586 C14.9061725,22.849207 13.3177222,17.4898594 13.1360965,16.8894902 L12.2281228,13.8819355 L9.16745029,14.6438535 L5.76289766,15.491252 L3.9686462,8.3392832 L15.1192573,4.05399609 C15.5793655,4.70497461 16.1313713,5.42692969 16.7755848,6.15505664 C19.7200292,9.49049219 23.0833596,11.2541055 26.5,11.2541055 C29.9166404,11.2541055 33.2799708,9.49049219 36.2244152,6.15505664 C36.8684737,5.42692969 37.4206345,4.70497461 37.8807427,4.05399609 L49.0338333,8.3392832 L47.2371023,15.491252 L43.8325497,14.6438535 L40.8445585,13.9001426 L39.8880789,16.8149648 C39.7016491,17.3803086 38.0744561,22.4420176 38.0744561,26.0787949 L38.0744561,26.525793 L38.1954883,26.9573613 L38.1954883,26.9573613 Z"></path>
                </g>
            </g>
        </g>
    </g>
</svg>