<?xml version="1.0" encoding="UTF-8"?>
<svg width="115px" height="115px" viewBox="0 0 115 115" version="1.1" xmlns="http://www.w3.org/2000/svg" xmlns:xlink="http://www.w3.org/1999/xlink" xmlns:sketch="http://www.bohemiancoding.com/sketch/ns">
    <!-- Generator: Sketch 3.3 (11970) - http://www.bohemiancoding.com/sketch -->
    <title>pant</title>
    <desc>Created with Sketch.</desc>
    <defs></defs>
    <g id="Page-1" stroke="none" stroke-width="1" fill="none" fill-rule="evenodd" sketch:type="MSPage">
        <g id="Desktop" sketch:type="MSArtboardGroup" transform="translate(-229.000000, -216.000000)">
            <g id="pant" sketch:type="MSLayerGroup" transform="translate(229.000000, 216.000000)">
                <rect id="Rectangle-1-Copy-5" fill="#40B8C7" sketch:type="MSShapeGroup" x="0" y="0" width="115" height="115" rx="10"></rect>
                <g id="trousers" transform="translate(30.000000, 14.000000)" fill="#FFFFFF" sketch:type="MSShapeGroup">
                    <path d="M51.3315,0 L3.667125,0 L0,88 L22,88 L27.5,56.8315 L33,88 L55,88 L51.3315,0 L51.3315,0 Z M48.2539062,14.1595781 C43.5649844,13.1685469 40.21875,11.2578125 38.1724063,9.75390625 C37.8984375,9.55521875 37.646125,9.35910937 37.4070469,9.167125 L48.0445625,9.167125 L48.2539062,14.1595781 L48.2539062,14.1595781 Z M42.1685,3.667125 L47.8161406,3.667125 L47.894,5.5 L42.1685,5.5 L42.1685,3.667125 L42.1685,3.667125 Z M29.332875,3.667125 L38.5,3.667125 L38.5,5.5 L29.332875,5.5 L29.332875,3.667125 L29.332875,3.667125 Z M16.5,3.667125 L25.667125,3.667125 L25.667125,5.5 L16.5,5.5 L16.5,3.667125 L16.5,3.667125 Z M7.18385937,3.667125 L12.832875,3.667125 L12.832875,5.5 L7.107375,5.5 L7.18385937,3.667125 L7.18385937,3.667125 Z M6.95423438,9.167125 L17.5929531,9.167125 C17.353875,9.35910937 17.1001875,9.55521875 16.8289688,9.75390625 C14.779875,11.2578125 11.4336406,13.1685469 6.74609375,14.1595781 L6.95423438,9.167125 L6.95423438,9.167125 Z M18.9237813,84.3315 L3.82284375,84.3315 L3.8995,82.5 L19.2474219,82.5 L18.9237813,84.3315 L18.9237813,84.3315 Z M31.109375,56.1977969 L27.5,35.7340156 L23.88925,56.1977969 L19.8945312,78.8315 L4.05109375,78.8315 L6.589,17.9260469 C16.0608594,16.2059219 21.201125,11.1342344 22.8822344,9.167125 L25.667125,9.167125 L25.667125,14.667125 C25.667125,15.6796406 26.4874844,16.5 27.5,16.5 C28.5125156,16.5 29.332875,15.6796406 29.332875,14.667125 L29.332875,9.167125 L32.1191406,9.167125 C33.80025,11.1342344 38.9405156,16.2059219 48.409625,17.9260469 L50.9501094,78.8315 L35.1054688,78.8315 L31.109375,56.1977969 L31.109375,56.1977969 Z M36.0775938,84.3315 L35.75275,82.5 L51.1006719,82.5 L51.1759531,84.3315 L36.0775938,84.3315 L36.0775938,84.3315 Z" id="Shape"></path>
                </g>
            </g>
        </g>
    </g>
</svg>