<?xml version="1.0" encoding="UTF-8"?>
<svg width="115px" height="115px" viewBox="0 0 115 115" version="1.1" xmlns="http://www.w3.org/2000/svg" xmlns:xlink="http://www.w3.org/1999/xlink" xmlns:sketch="http://www.bohemiancoding.com/sketch/ns">
    <!-- Generator: Sketch 3.3 (11970) - http://www.bohemiancoding.com/sketch -->
    <title>coat</title>
    <desc>Created with Sketch.</desc>
    <defs></defs>
    <g id="Page-1" stroke="none" stroke-width="1" fill="none" fill-rule="evenodd" sketch:type="MSPage">
        <g id="Desktop" sketch:type="MSArtboardGroup" transform="translate(-395.000000, -69.000000)">
            <g id="coat" sketch:type="MSLayerGroup" transform="translate(395.000000, 69.000000)">
                <rect id="Rectangle-1-Copy-2" fill="#40B8C7" sketch:type="MSShapeGroup" x="0" y="0" width="115" height="115" rx="10"></rect>
                <g id="jacket" transform="translate(27.000000, 21.000000)" fill="#FFFFFF" sketch:type="MSShapeGroup">
                    <path d="M47.7669439,3.13907422 L43.3623364,0 L18.6376636,0 L14.2330561,3.13907422 C6.31443925,3.80521875 0.0956074766,10.4276406 0.0956074766,18.5 L0.0956074766,58.584875 L9.36663551,58.584875 L9.36663551,74 L52.6333645,74 L52.6333645,58.584875 L61.9043925,58.584875 L61.9043925,18.5 C61.9043925,10.4276406 55.6844019,3.80521875 47.7669439,3.13907422 L47.7669439,3.13907422 Z M29.4546355,70.915125 L12.4573645,70.915125 L12.4573645,69.375 L29.4546355,69.375 L29.4546355,70.915125 L29.4546355,70.915125 Z M12.4573645,66.2902695 L12.4573645,21.5838633 L9.36663551,21.5838633 L9.36663551,55.5 C9.36663551,54.6485664 8.67521963,53.959875 7.82185047,53.959875 C6.96848131,53.959875 6.27706542,54.6485664 6.27706542,55.5 C6.27706542,54.6485664 5.58449065,53.959875 4.7311215,53.959875 C3.87775234,53.959875 3.18633645,54.6485664 3.18633645,55.5 L3.18633645,18.5 C3.18633645,15.2062773 4.47196729,12.1078164 6.8066729,9.7795625 C9.09386449,7.49755859 12.1178131,6.22048047 15.3444206,6.16859375 C15.3444206,6.16859375 15.8602495,6.16859377 16.118164,6.16859377 L19.3940429,6.16859387 L29.4546356,6.16859375 L29.4546355,66.2902695 L12.4573645,66.2902695 Z M37.9862057,3.08371875 L31.0390626,5.02453611 L23.0300294,3.08371875 L37.9862057,3.08371875 Z M49.5414766,70.915125 L32.5442056,70.915125 L32.5442056,69.375 L49.5414766,69.375 L49.5414766,70.915125 L49.5414766,70.915125 Z M55.7206168,55.4413203 C55.7206168,54.5921992 55.030215,53.9011953 54.1769907,53.9011953 C53.3237664,53.9011953 52.6333645,54.5921992 52.6333645,55.4413203 L52.6333645,21.5837187 L49.5414766,21.5837187 L49.5414766,66.290125 L32.5442056,66.290125 L32.5442056,11.1549219 L32.5442056,6.16859375 L46.6532617,6.16859375 C49.8808832,6.22048047 52.9048318,7.49755859 55.1910093,9.7795625 C57.5268738,12.1078164 58.8125047,15.2062773 58.8125047,18.5 L58.8125047,55.4411758 C58.8123598,54.5920547 58.1199299,53.9011953 57.2688785,53.9011953 C56.4133364,53.9011953 55.7206168,54.5921992 55.7206168,55.4413203 Z M58.8125047,55.5 L58.808014,55.5 C58.8101869,55.4819336 58.8125047,55.4615547 58.8125047,55.4413203 L58.8125047,55.5 L58.8125047,55.5 Z" id="Shape"></path>
                </g>
            </g>
        </g>
    </g>
</svg>