<?xml version="1.0" encoding="UTF-8"?>
<svg width="115px" height="115px" viewBox="0 0 115 115" version="1.1" xmlns="http://www.w3.org/2000/svg" xmlns:xlink="http://www.w3.org/1999/xlink" xmlns:sketch="http://www.bohemiancoding.com/sketch/ns">
    <!-- Generator: Sketch 3.3 (11970) - http://www.bohemiancoding.com/sketch -->
    <title>top</title>
    <desc>Created with Sketch.</desc>
    <defs></defs>
    <g id="Page-1" stroke="none" stroke-width="1" fill="none" fill-rule="evenodd" sketch:type="MSPage">
        <g id="Desktop" sketch:type="MSArtboardGroup" transform="translate(-561.000000, -69.000000)">
            <g id="top" sketch:type="MSLayerGroup" transform="translate(561.000000, 69.000000)">
                <rect id="Rectangle-1-Copy-3" fill="#40B8C7" sketch:type="MSShapeGroup" x="0" y="0" width="115" height="115" rx="10"></rect>
                <g id="polo" transform="translate(18.000000, 23.000000)" fill="#FFFFFF" sketch:type="MSShapeGroup">
                    <path d="M40.00125,18.4070444 C39.0807812,18.4070444 38.33375,19.1495111 38.33375,20.0671333 C38.33375,20.9835111 39.0807812,21.7259778 40.00125,21.7259778 C40.9217187,21.7259778 41.6675,20.9835111 41.6675,20.0671333 C41.6675,19.1496667 40.9215625,18.4070444 40.00125,18.4070444 L40.00125,18.4070444 Z" id="Shape"></path>
                    <path d="M40.00125,23.3848222 C39.0807812,23.3848222 38.33375,24.1272889 38.33375,25.0449111 C38.33375,25.9612889 39.0807812,26.7037556 40.00125,26.7037556 C40.9217187,26.7037556 41.6675,25.9612889 41.6675,25.0449111 C41.6675,24.1274444 40.9215625,23.3848222 40.00125,23.3848222 L40.00125,23.3848222 Z" id="Shape"></path>
                    <path d="M60,8.21473333 L50,0.155088889 L30.00125,0.155088889 L20.00125,8.21473333 L0,16.7482 L6.6675,36.6593111 L16.6675,33.3403778 L16.6675,69.8449111 L63.335,69.8449111 L63.335,33.3403778 L73.335,36.6593111 L80,16.7482 L60,8.21473333 L60,8.21473333 Z M54.2382812,7.83922222 L44.5239062,13.7637111 L42.2228125,9.57833333 L49.8485938,4.30282222 L54.2382812,7.83922222 L54.2382812,7.83922222 Z M45.205,3.47371111 L40.00125,7.07466667 L34.79625,3.47386667 L45.205,3.47386667 L45.205,3.47371111 Z M30.1526562,4.30251111 L37.7784375,9.57802222 L35.4773437,13.7634 L25.7642187,7.83891111 L30.1526562,4.30251111 L30.1526562,4.30251111 Z M71.225625,32.4619556 L64.3896875,30.1930222 L60,28.7370222 L60,33.3405333 L60,66.5248889 L20.00125,66.5248889 L20.00125,33.3403778 L20.00125,28.7368667 L15.6128125,30.1927111 L8.775625,32.4616444 L4.13328125,18.5952667 L23.4826563,10.3386889 L36.72125,18.4129556 L40.00125,12.4470889 L43.28125,18.4131111 L56.5185938,10.3388444 L75.8692188,18.5954222 L71.225625,32.4619556 L71.225625,32.4619556 Z" id="Shape"></path>
                </g>
            </g>
        </g>
    </g>
</svg>